<svg width="20" height="16" viewBox="0 0 20 16" fill="none" xmlns="http://www.w3.org/2000/svg">
<path d="M14.5749 5.09689C15.1883 4.50241 15.7972 3.11529 13.2415 4.79965C10.854 6.39212 8.45037 7.96168 6.03089 9.50811C5.66246 9.66957 5.26416 9.75719 4.85991 9.76571C4.45565 9.77422 4.0538 9.70345 3.67848 9.55764C2.14502 9.11178 0.354872 8.51731 0.354872 8.51731C0.354872 8.51731 -0.86745 7.77313 1.22494 6.98049C1.22494 6.98049 10.0712 3.46207 13.1393 2.2225C14.3149 1.7271 18.303 0.141816 18.303 0.141816C18.303 0.141816 20.1443 -0.552821 19.9909 1.13262C19.9398 1.82618 19.5309 4.25579 19.122 6.88141C18.5075 10.598 17.843 14.6624 17.843 14.6624C17.843 14.6624 17.7407 15.8018 16.8718 16C15.9416 15.9847 15.0428 15.6712 14.316 15.1083C14.1116 14.9597 10.4813 12.7293 9.15115 11.6394C9.01585 11.5506 8.90592 11.43 8.83161 11.289C8.75729 11.1479 8.72099 10.9909 8.7261 10.8326C8.7312 10.6743 8.77753 10.5198 8.86078 10.3835C8.94404 10.2472 9.06151 10.1335 9.20226 10.053C11.0266 8.43537 12.8178 6.783 14.5749 5.09689Z" fill="#FF0000"/>
</svg>
